<?xml version="1.0" encoding="utf-8"?>
<!-- Generator: Adobe Illustrator 21.1.0, SVG Export Plug-In . SVG Version: 6.00 Build 0)  -->
<svg version="1.1" id="Слой_1" xmlns="http://www.w3.org/2000/svg" xmlns:xlink="http://www.w3.org/1999/xlink" x="0px" y="0px"
	 viewBox="0 0 720 720" style="enable-background:new 0 0 720 720;" xml:space="preserve">
<style type="text/css">
	.st0{fill:none;stroke:#FFFFFF;stroke-width:17.5;stroke-miterlimit:10;}
	.st1{fill:none;stroke:#FFFFFF;stroke-width:10;stroke-miterlimit:10;}
	.st2{fill:#FFFFFF;stroke:#FFFFFF;stroke-miterlimit:10;}
	.st3{fill:none;stroke:#FFFFFF;stroke-width:2;stroke-miterlimit:10;}
</style>
<g id="Слой_2">
</g>
<g>
	<path class="st0" d="M463.9,370.9v-30V370.9z"/>
	<rect x="253.1" y="305.9" class="st1" width="200" height="100"/>
</g>
<g id="XMLID_1_">
	<g>
		<rect x="410.6" y="314.4" class="st2" width="32.5" height="84"/>
	</g>
	<g>
		<rect x="410.6" y="314.4" class="st2" width="32.5" height="84"/>
	</g>
</g>
<g id="XMLID_2_">
	<g>
		<rect x="373.6" y="314.4" class="st2" width="32.5" height="84"/>
	</g>
	<g>
		<rect x="373.6" y="314.4" class="st2" width="32.5" height="84"/>
	</g>
</g>
<g id="XMLID_3_">
	<g>
		<rect x="336.6" y="314.4" class="st2" width="32.5" height="84"/>
	</g>
	<g>
		<rect x="336.6" y="314.4" class="st2" width="32.5" height="84"/>
	</g>
</g>
<g id="XMLID_4_">
	<g>
		<rect x="299.6" y="314.4" class="st2" width="32.5" height="84"/>
	</g>
	<g>
		<rect x="299.6" y="314.4" class="st2" width="32.5" height="84"/>
	</g>
</g>
<g id="XMLID_5_">
	<g>
		<rect x="262.6" y="314.4" class="st2" width="32.5" height="84"/>
	</g>
	<g>
		<rect x="262.6" y="314.4" class="st2" width="32.5" height="84"/>
	</g>
</g>
<g>
	<path class="st0" d="M463.9,619.9v-30V619.9z"/>
	<rect x="253.1" y="554.8" class="st1" width="200" height="100"/>
</g>
<g id="XMLID_10_">
	<g>
		<rect x="410.6" y="563.4" class="st2" width="32.5" height="84"/>
	</g>
	<g>
		<rect x="410.6" y="563.4" class="st2" width="32.5" height="84"/>
	</g>
</g>
<g id="XMLID_9_">
	<g>
		<rect x="373.6" y="563.4" class="st2" width="32.5" height="84"/>
	</g>
	<g>
		<rect x="373.6" y="563.4" class="st2" width="32.5" height="84"/>
	</g>
</g>
<g id="XMLID_8_">
	<g>
		<rect x="336.6" y="563.4" class="st2" width="32.5" height="84"/>
	</g>
	<g>
		<rect x="336.6" y="563.4" class="st2" width="32.5" height="84"/>
	</g>
</g>
<g id="XMLID_7_">
	<g>
		<rect x="299.6" y="563.4" class="st2" width="32.5" height="84"/>
	</g>
	<g>
		<rect x="299.6" y="563.4" class="st2" width="32.5" height="84"/>
	</g>
</g>
<g id="XMLID_6_">
	<g>
		<rect x="262.6" y="563.4" class="st2" width="32.5" height="84"/>
	</g>
	<g>
		<rect x="262.6" y="563.4" class="st2" width="32.5" height="84"/>
	</g>
</g>
<g>
	<path class="st0" d="M464.9,126.9v-30V126.9z"/>
	<rect x="254.1" y="61.9" class="st1" width="200" height="100"/>
</g>
<g id="XMLID_15_">
	<g>
		<rect x="411.6" y="70.4" class="st2" width="32.5" height="84"/>
	</g>
	<g>
		<rect x="411.6" y="70.4" class="st2" width="32.5" height="84"/>
	</g>
</g>
<g id="XMLID_14_">
	<g>
		<rect x="374.6" y="70.4" class="st2" width="32.5" height="84"/>
	</g>
	<g>
		<rect x="374.6" y="70.4" class="st2" width="32.5" height="84"/>
	</g>
</g>
<g id="XMLID_13_">
	<g>
		<rect x="337.6" y="70.4" class="st2" width="32.5" height="84"/>
	</g>
	<g>
		<rect x="337.6" y="70.4" class="st2" width="32.5" height="84"/>
	</g>
</g>
<g id="XMLID_12_">
	<g>
		<rect x="300.6" y="70.4" class="st2" width="32.5" height="84"/>
	</g>
	<g>
		<rect x="300.6" y="70.4" class="st2" width="32.5" height="84"/>
	</g>
</g>
<g id="XMLID_11_">
	<g>
		<rect x="263.6" y="70.4" class="st2" width="32.5" height="84"/>
	</g>
	<g>
		<rect x="263.6" y="70.4" class="st2" width="32.5" height="84"/>
	</g>
</g>
<g>
	<path class="st0" d="M463.9,245.9v-30V245.9z"/>
	<rect x="253.1" y="180.9" class="st1" width="200" height="100"/>
</g>
<g id="XMLID_20_">
	<g>
		<rect x="410.6" y="189.4" class="st2" width="32.5" height="84"/>
	</g>
	<g>
		<rect x="410.6" y="189.4" class="st2" width="32.5" height="84"/>
	</g>
</g>
<g id="XMLID_19_">
	<g>
		<rect x="373.6" y="189.4" class="st2" width="32.5" height="84"/>
	</g>
	<g>
		<rect x="373.6" y="189.4" class="st2" width="32.5" height="84"/>
	</g>
</g>
<g id="XMLID_18_">
	<g>
		<rect x="336.6" y="189.4" class="st2" width="32.5" height="84"/>
	</g>
	<g>
		<rect x="336.6" y="189.4" class="st2" width="32.5" height="84"/>
	</g>
</g>
<g id="XMLID_17_">
	<g>
		<rect x="299.6" y="189.4" class="st2" width="32.5" height="84"/>
	</g>
	<g>
		<rect x="299.6" y="189.4" class="st2" width="32.5" height="84"/>
	</g>
</g>
<g id="XMLID_16_">
	<g>
		<rect x="262.6" y="189.4" class="st2" width="32.5" height="84"/>
	</g>
	<g>
		<rect x="262.6" y="189.4" class="st2" width="32.5" height="84"/>
	</g>
</g>
<g>
	<path class="st0" d="M463.9,493.9v-30V493.9z"/>
	<rect x="253.1" y="428.8" class="st1" width="200" height="100"/>
</g>
<g id="XMLID_25_">
	<g>
		<rect x="410.6" y="437.4" class="st2" width="32.5" height="84"/>
	</g>
	<g>
		<rect x="410.6" y="437.4" class="st2" width="32.5" height="84"/>
	</g>
</g>
<g id="XMLID_24_">
	<g>
		<rect x="373.6" y="437.4" class="st2" width="32.5" height="84"/>
	</g>
	<g>
		<rect x="373.6" y="437.4" class="st2" width="32.5" height="84"/>
	</g>
</g>
<g id="XMLID_23_">
	<g>
		<rect x="336.6" y="437.4" class="st2" width="32.5" height="84"/>
	</g>
	<g>
		<rect x="336.6" y="437.4" class="st2" width="32.5" height="84"/>
	</g>
</g>
<g id="XMLID_22_">
	<g>
		<rect x="299.6" y="437.4" class="st2" width="32.5" height="84"/>
	</g>
	<g>
		<rect x="299.6" y="437.4" class="st2" width="32.5" height="84"/>
	</g>
</g>
<g id="XMLID_21_">
	<g>
		<rect x="262.6" y="437.4" class="st2" width="32.5" height="84"/>
	</g>
	<g>
		<rect x="262.6" y="437.4" class="st2" width="32.5" height="84"/>
	</g>
</g>
<g id="Слой_1_1_">
	<g id="Слой_2_1_">
	</g>
	<circle class="st3" cx="360.3" cy="360" r="356"/>
</g>
</svg>
