<?xml version="1.0" encoding="utf-8"?>
<!-- Generator: Adobe Illustrator 21.1.0, SVG Export Plug-In . SVG Version: 6.00 Build 0)  -->
<svg version="1.1" id="Слой_1" xmlns="http://www.w3.org/2000/svg" xmlns:xlink="http://www.w3.org/1999/xlink" x="0px" y="0px"
	 viewBox="0 0 720 720" style="enable-background:new 0 0 720 720;" xml:space="preserve">
<style type="text/css">
	.st0{fill:none;stroke:#FFFFFF;stroke-width:2;stroke-linecap:round;stroke-linejoin:round;}
	.st1{fill:#FFFFFF;}
	.st2{fill:none;stroke:#FFFFFF;stroke-width:6;stroke-miterlimit:10;}
	.st3{fill:none;stroke:#FFFFFF;stroke-width:10;stroke-miterlimit:10;}
</style>
<g id="Слой_1_1_">
	<circle class="st0" cx="360" cy="360" r="356"/>
</g>
<g id="Слой_2">
	<g id="XMLID_1_">
		<g>
			<path class="st1" d="M498,466v20c0,6.6-5.4,12-12,12h-17h-35h-36h-38h-38h-35h-36h-17c-6.6,0-12-5.4-12-12V234
				c0-6.6,5.4-12,12-12h17h36h35h38h38h36h35h17c6.6,0,12,5.4,12,12v14v35v36v38v38v35V466z M469,454V260c0-6.6-5.4-12-12-12H263
				c-6.6,0-12,5.4-12,12v194c0,6.6,5.4,12,12,12h194C463.6,466,469,460.6,469,454z"/>
			<path class="st1" d="M469,260v194c0,6.6-5.4,12-12,12H263c-6.6,0-12-5.4-12-12V260c0-6.6,5.4-12,12-12h194
				C463.6,248,469,253.4,469,260z"/>
		</g>
		<g>
			<path class="st2" d="M498,466v20c0,6.6-5.4,12-12,12h-17h-35h-36h-38h-38h-35h-36h-17c-6.6,0-12-5.4-12-12V234
				c0-6.6,5.4-12,12-12h17h36h35h38h38h36h35h17c6.6,0,12,5.4,12,12v14v35v36v38v38v35V466z"/>
			<line class="st3" x1="360" y1="222" x2="360" y2="194"/>
			<line class="st3" x1="398" y1="222" x2="398" y2="194"/>
			<line class="st3" x1="434" y1="222" x2="434" y2="194"/>
			<line class="st3" x1="469" y1="222" x2="469" y2="194"/>
			<line class="st3" x1="251" y1="222" x2="251" y2="194"/>
			<line class="st3" x1="287" y1="222" x2="287" y2="194"/>
			<line class="st3" x1="322" y1="222" x2="322" y2="194"/>
			<line class="st3" x1="360" y1="526" x2="360" y2="498"/>
			<line class="st3" x1="398" y1="526" x2="398" y2="498"/>
			<line class="st3" x1="434" y1="526" x2="434" y2="498"/>
			<line class="st3" x1="469" y1="526" x2="469" y2="498"/>
			<line class="st3" x1="251" y1="526" x2="251" y2="498"/>
			<line class="st3" x1="287" y1="526" x2="287" y2="498"/>
			<line class="st3" x1="322" y1="526" x2="322" y2="498"/>
			<line class="st3" x1="526" y1="357" x2="498" y2="357"/>
			<line class="st3" x1="526" y1="319" x2="498" y2="319"/>
			<line class="st3" x1="526" y1="283" x2="498" y2="283"/>
			<line class="st3" x1="526" y1="248" x2="498" y2="248"/>
			<line class="st3" x1="526" y1="466" x2="498" y2="466"/>
			<line class="st3" x1="526" y1="430" x2="498" y2="430"/>
			<line class="st3" x1="526" y1="395" x2="498" y2="395"/>
			<line class="st3" x1="219" y1="357" x2="191" y2="357"/>
			<line class="st3" x1="219" y1="319" x2="191" y2="319"/>
			<line class="st3" x1="219" y1="283" x2="191" y2="283"/>
			<line class="st3" x1="219" y1="248" x2="191" y2="248"/>
			<line class="st3" x1="219" y1="466" x2="191" y2="466"/>
			<line class="st3" x1="219" y1="430" x2="191" y2="430"/>
			<line class="st3" x1="219" y1="395" x2="191" y2="395"/>
			<path class="st3" d="M457,466H263c-6.6,0-12-5.4-12-12V260c0-6.6,5.4-12,12-12h194c6.6,0,12,5.4,12,12v194
				C469,460.6,463.6,466,457,466z"/>
		</g>
	</g>
</g>
</svg>
