<?xml version="1.0" encoding="utf-8"?>
<!-- Generator: Adobe Illustrator 21.1.0, SVG Export Plug-In . SVG Version: 6.00 Build 0)  -->
<svg version="1.1" id="Слой_1" xmlns="http://www.w3.org/2000/svg" xmlns:xlink="http://www.w3.org/1999/xlink" x="0px" y="0px"
	 viewBox="0 0 740 740" style="enable-background:new 0 0 740 740;" xml:space="preserve">
<style type="text/css">
	.st0{fill:none;stroke:#FFFFFF;stroke-width:2;stroke-miterlimit:10;}
	.st1{fill:none;stroke:#FFFFFF;stroke-width:0.25;stroke-miterlimit:10;}
	.st2{fill:none;stroke:#FFFFFF;stroke-width:5;stroke-miterlimit:10;}
	.st3{fill:#FFFFFF;stroke:#FFFFFF;stroke-miterlimit:10;}
	.st4{fill:none;stroke:#FFFFFF;stroke-width:3;stroke-miterlimit:10;}
</style>
<g id="Слой_1_1_">
	<g id="Слой_2">
	</g>
	<circle class="st0" cx="368.3" cy="370" r="356"/>
</g>
<g>
	<g id="XMLID_2_">
		<g>
			<line class="st1" x1="380.6" y1="131.3" x2="356" y2="168.7"/>
			<line class="st1" x1="356" y1="168.7" x2="370.7" y2="166.2"/>
			<line class="st1" x1="356.6" y1="205.6" x2="370.9" y2="166.3"/>
			<line class="st1" x1="389.4" y1="158.1" x2="356.6" y2="205.6"/>
			<line class="st1" x1="373.4" y1="160.6" x2="389.4" y2="158.1"/>
			<line class="st1" x1="380.6" y1="131.3" x2="373.4" y2="160.6"/>
		</g>
	</g>
	<path class="st2" d="M408.7,224.8h-75c-6.6,0-12-5.4-12-12v-129c0-6.6,5.4-12,12-12h75c6.6,0,12,5.4,12,12v129
		C420.7,219.4,415.3,224.8,408.7,224.8z"/>
	<path class="st0" d="M386.9,106.3h-29c-4.8,0-8.8-3.9-8.8-8.7l0,0c0-4.8,3.9-8.7,8.8-8.7h29c4.8,0,8.8,3.9,8.8,8.7l0,0
		C395.7,102.4,391.8,106.3,386.9,106.3z"/>
</g>
<g>
	<path class="st3" d="M374.2,592.1c0,4.6,3.7,8.3,8.3,8.3c4.5,0,8.3-3.7,8.3-8.3s-3.7-8.3-8.3-8.3
		C377.9,583.8,374.2,587.5,374.2,592.1z M499.4,298.9v297c0,6.6-5.4,12-12,12h-210c-6.6,0-12-5.4-12-12v-297c0-6.6,5.4-12,12-12h210
		C494,286.9,499.4,292.3,499.4,298.9z M487,563.8v-252c0-6.6-5.4-12-12-12H290c-6.6,0-12,5.4-12,12v252c0,6.6,5.4,12,12,12h185
		C481.5,575.8,487,570.4,487,563.8z"/>
	<path class="st3" d="M644,304v106c0,6.6-5.4,12-12,12h-51c-6.6,0-12-5.4-12-12V304c0-6.6,5.4-12,12-12h51
		C638.6,292,644,297.4,644,304z M634.6,341.4v-29.6c0-6.6-5.4-12-12-12H593c-6.6,0-12,5.4-12,12v29.6c0,6.6,5.4,12,12,12h29.6
		C629.2,353.4,634.6,348,634.6,341.4z M627.5,389.8c0-10.9-8.8-19.8-19.8-19.8c-10.9,0-19.8,8.8-19.8,19.8s8.8,19.8,19.8,19.8
		C618.7,409.5,627.5,400.7,627.5,389.8z"/>
	<path class="st3" d="M205.9,280.8v206c0,6.6-5.4,12-12,12h-85c-6.6,0-12-5.4-12-12v-206c0-6.6,5.4-12,12-12h85
		C200.6,268.8,205.9,274.2,205.9,280.8z M199.9,459.5v-169c0-6.6-5.4-12-12-12h-71c-6.6,0-12,5.4-12,12v169c0,6.6,5.4,12,12,12h71
		C194.5,471.5,199.9,466.1,199.9,459.5z M159.7,483.5c0-4.6-3.7-8.3-8.3-8.3s-8.3,3.7-8.3,8.3c0,4.6,3.7,8.3,8.3,8.3
		S159.7,488.1,159.7,483.5z"/>
</g>
<path class="st0" d="M193.9,498.8h-85c-6.6,0-12-5.4-12-12v-206c0-6.6,5.4-12,12-12h85c6.6,0,12,5.4,12,12v206
	C205.9,493.4,200.6,498.8,193.9,498.8z"/>
<path class="st0" d="M159.7,483.5c0,4.6-3.7,8.3-8.3,8.3s-8.3-3.7-8.3-8.3c0-4.6,3.7-8.3,8.3-8.3C156,475.3,159.7,479,159.7,483.5z"
	/>
<path class="st0" d="M390.7,592.1c0,4.6-3.7,8.3-8.3,8.3c-4.6,0-8.3-3.7-8.3-8.3s3.7-8.3,8.3-8.3S390.7,587.5,390.7,592.1z"/>
<path class="st0" d="M475,575.8H290c-6.6,0-12-5.4-12-12v-252c0-6.6,5.4-12,12-12h185c6.6,0,12,5.4,12,12v252
	C487,570.4,481.5,575.8,475,575.8z"/>
<path class="st0" d="M187.9,471.5h-71c-6.6,0-12-5.4-12-12v-169c0-6.6,5.4-12,12-12h71c6.6,0,12,5.4,12,12v169
	C199.9,466.1,194.5,471.5,187.9,471.5z"/>
<path class="st0" d="M487.4,607.9h-210c-6.6,0-12-5.4-12-12v-297c0-6.6,5.4-12,12-12h210c6.6,0,12,5.4,12,12v297
	C499.4,602.5,494,607.9,487.4,607.9z"/>
<path class="st0" d="M632,422h-51c-6.6,0-12-5.4-12-12V304c0-6.6,5.4-12,12-12h51c6.6,0,12,5.4,12,12v106
	C644,416.6,638.6,422,632,422z"/>
<path class="st0" d="M622.6,353.4H593c-6.6,0-12-5.4-12-12v-29.6c0-6.6,5.4-12,12-12h29.6c6.6,0,12,5.4,12,12v29.6
	C634.6,348,629.2,353.4,622.6,353.4z"/>
<circle class="st0" cx="607.8" cy="389.8" r="19.8"/>
<path class="st4" d="M149.5,498.8c0,18.3,14.1,33.2,31.5,33.2"/>
<path class="st4" d="M382.4,606.3c0,19.7,17.1,35.7,38.2,35.7"/>
<path class="st4" d="M607.8,421.5c0,18.8,15.5,34,34.6,34"/>
<path class="st4" d="M348.3,226.9c0,12.1-11,21.9-24.6,21.9"/>
<path class="st4" d="M392.4,223.8c0,10.6,10.1,19.3,22.5,19.3"/>
<line class="st4" x1="230.4" y1="502" x2="233.9" y2="266.8"/>
<line class="st4" x1="672" y1="278.5" x2="669" y2="436.5"/>
<line class="st4" x1="414.9" y1="243" x2="618" y2="243"/>
<line class="st4" x1="531" y1="292" x2="530" y2="615"/>
<path class="st4" d="M233.9,266.8c0-9.9,10-18,22.3-18"/>
<path class="st4" d="M530,615c0,14.9-18.9,27-42.2,27"/>
<path class="st4" d="M672,278.5c0-19.6-24.2-35.5-54-35.5"/>
<path class="st4" d="M371.2,226.9c0,17.2,11.7,31.1,26.2,31.1"/>
<path class="st4" d="M531,292c0-18.8-15.2-34-34-34"/>
<path class="st4" d="M669,436.5c0,10.5-11.9,19-26.6,19"/>
<path class="st4" d="M230.4,502c0,16.6-16.7,30-37.4,30"/>
<line class="st4" x1="193" y1="532" x2="181" y2="532"/>
<line class="st4" x1="487.8" y1="642" x2="420.7" y2="642"/>
<line class="st4" x1="323.6" y1="248.8" x2="256.2" y2="248.8"/>
<line class="st4" x1="497" y1="258" x2="397.4" y2="258"/>
</svg>
